<svg xmlns="http://www.w3.org/2000/svg" viewBox="0 0 2074.46 345.53"><defs><style>.cls-1{fill:#222221;}.cls-1,.cls-2,.cls-4,.cls-5{stroke:#222221;stroke-linecap:round;stroke-linejoin:round;}.cls-1,.cls-4{stroke-width:13.74px;}.cls-2,.cls-4,.cls-5{fill:none;}.cls-2{stroke-width:15px;}.cls-3{fill:#ebb211;}.cls-5{stroke-width:13px;}</style></defs><g id="Text"><polygon class="cls-1" points="252.69 6.87 24.95 129.01 252.69 251.15 480.44 129.01 252.69 6.87"/><polyline class="cls-2" points="420.21 192.18 420.21 248.3 252.89 338.03 252.69 338.03 85.38 248.3 85.38 192.18"/><polygon class="cls-3" points="49.9 338.03 0 338.03 0 194.37 24.95 156.57 49.9 194.37 49.9 338.03"/><line class="cls-4" x1="455.31" y1="312.9" x2="455.31" y2="161.29"/><path class="cls-4" d="M628.62,731.25" transform="translate(-148.18 -418.34)"/><polygon class="cls-5" points="430.19 338.03 455.31 312.9 480.44 338.03 430.19 338.03"/><path d="M821,714.51H953.63v38H779.8V504.13H951.5v37.25H821v66.7H945.47V645H821Z" transform="translate(-148.18 -418.34)"/><path d="M1007.92,731.54c-16-16.68-24.13-38.67-24.13-66.34,0-27.32,8.16-49.67,24.48-66.7,16-16.67,36.54-25.19,61.38-25.19,28.38,0,51.44,13.48,62.79,33.7h.71a301.87,301.87,0,0,1-3.19-45.76V504.13h39.73V752.47H1132.8V723.73h-1.07c-8.51,18.1-33.35,32.64-61.73,32.64C1044.81,756.37,1023.88,748.21,1007.92,731.54Zm122-66c0-33.7-22-57.12-53.22-57.12s-53.21,23.42-53.21,55.7c0,33.71,21.64,57.12,52.5,57.12C1107.61,721.25,1130,698.19,1130,665.55Z" transform="translate(-148.18 -418.34)"/><path d="M1219.36,672.65V577.21h39.73v94.37c0,30.16,16.68,49.32,43.64,49.32s46.12-21.65,46.12-51.45V577.21h39.73V752.47H1352q0-18.63,1.07-28.74H1352c-11.35,21.64-30.86,32.29-58.18,32.29C1248.1,756,1219.36,723.38,1219.36,672.65Z" transform="translate(-148.18 -418.34)"/><path d="M1669.21,504.13h40.08V752.47h-41.15V599.92a241.13,241.13,0,0,1,1.07-24.83l-.71-.36q-1.61,3.72-18.1,27.67l-65.63,97.21h-14.19l-64.92-96.85q-6.92-9.59-18.1-26.61l-1.06.35a241.56,241.56,0,0,1,1.06,24.84V752.47h-41.15V504.13h40.44L1578,640.72Z" transform="translate(-148.18 -418.34)"/><path d="M1915.06,642.49v110H1880.3q0-18.63,1.06-28.74h-1.06c-11.71,20.23-36.9,31.58-62.44,31.58-18.81,0-34.42-5-47.54-14.55S1750.8,717,1750.8,698.55c0-18.81,6.75-33,20.58-43.29,13.84-9.93,30.16-14.9,49.67-14.9,22.35,0,40.44,4.26,54.28,12.42V643.2c0-24.12-16.67-36.19-49.67-36.19-15.61,0-33,3.55-52.15,11l-9.22-30.86c20.93-8.87,42.21-13.48,64.21-13.48C1886.33,573.67,1915.06,596.73,1915.06,642.49ZM1876.39,684c-13.83-8.87-29.44-13.48-47.54-13.48-21.64,0-38.31,9.22-38.31,26.25s16.67,25.9,36.19,25.9C1851.91,722.67,1873.56,708.48,1876.39,684Z" transform="translate(-148.18 -418.34)"/><path d="M1964.73,752.47V577.21h36.9q0,13.31-1.07,28.74h.71c7.45-18.45,27-32.28,52.51-32.28,8.87,0,17,1.06,23.77,3.54l-10.29,35.13a49.39,49.39,0,0,0-17.39-2.84c-27.31,0-45.41,20.57-45.41,52.15v90.82Z" transform="translate(-148.18 -418.34)"/><path d="M2222.65,746.44a96,96,0,0,1-39.38,8.51c-36.9,0-57.48-21.64-57.48-62.44v-82.3h-33v-33h33V531.45l39.38-4.26v50h50.38v33h-50.38v81.24c0,19.51,8.16,29.09,24.48,29.09a47.14,47.14,0,0,0,22-5.68Z" transform="translate(-148.18 -418.34)"/></g></svg>